<svg width="18" height="15" viewBox="0 0 18 15" fill="none" xmlns="http://www.w3.org/2000/svg">
<path d="M14.9058 2.32774H13.7497V4.47059H14.9058C15.1819 4.47122 15.4466 4.58606 15.6419 4.78999C15.8372 4.99391 15.9472 5.2703 15.9478 5.55869V11.6658C15.9472 11.9542 15.8372 12.2306 15.6419 12.4345C15.4466 12.6385 15.1819 12.7533 14.9058 12.7539H3.09425C2.81806 12.7533 2.55336 12.6385 2.35807 12.4345C2.16278 12.2306 2.05279 11.9542 2.05219 11.6658V5.55869C2.05279 5.2703 2.16278 4.99391 2.35807 4.78999C2.55336 4.58606 2.81806 4.47122 3.09425 4.47059H7.55891V5.72774C7.55917 5.79811 7.56604 5.86829 7.57943 5.93726C7.57943 5.96821 7.59767 5.99917 7.60451 6.03012C7.61332 6.0664 7.62397 6.10217 7.63643 6.13726C7.65203 6.17318 7.66954 6.20815 7.68888 6.24202C7.70256 6.26821 7.71396 6.29679 7.72992 6.3206C7.80524 6.43842 7.90211 6.53956 8.01495 6.61821C8.04003 6.63488 8.06511 6.64679 8.09248 6.66107C8.1544 6.70314 8.22318 6.733 8.29541 6.74917C8.32506 6.74917 8.35242 6.7706 8.38434 6.77536C8.51676 6.80351 8.65325 6.80351 8.78566 6.77536C8.8153 6.77536 8.84494 6.75631 8.87459 6.74917C8.94574 6.73425 9.01372 6.70601 9.07525 6.66583C9.10033 6.65155 9.12769 6.63964 9.15277 6.62298C9.2094 6.5833 9.2621 6.53784 9.31011 6.48726L11.5379 4.16107C11.73 3.96018 11.838 3.68786 11.838 3.40393C11.838 3.12 11.73 2.84768 11.5379 2.64678L9.31011 0.31345C9.262 0.263706 9.20929 0.219045 9.15277 0.180117C9.12085 0.161069 9.10033 0.149165 9.07525 0.134879C9.04355 0.114755 9.01082 0.0964731 8.9772 0.080117C8.94283 0.0670402 8.90782 0.0559128 8.87231 0.0467836C8.84266 0.0467836 8.8153 0.0253551 8.78566 0.0205932C8.65318 -0.00686439 8.51682 -0.00686439 8.38434 0.0205932C8.3547 0.0205932 8.32734 0.0396408 8.29769 0.0467836C8.26218 0.0559128 8.22717 0.0670402 8.1928 0.080117C8.15918 0.0964731 8.12645 0.114755 8.09476 0.134879C8.06967 0.149165 8.04231 0.161069 8.01723 0.180117C7.90378 0.257824 7.80615 0.358156 7.72992 0.475355C7.71396 0.501546 7.70256 0.527736 7.68888 0.553927C7.66953 0.587796 7.65203 0.622772 7.63643 0.658689C7.62397 0.693785 7.61332 0.72955 7.60451 0.765832C7.60451 0.796784 7.58399 0.825355 7.57943 0.858689C7.56604 0.927661 7.55917 0.997839 7.55891 1.06821V2.32774H3.09425C2.27397 2.329 1.48764 2.6698 0.907617 3.27545C0.327594 3.8811 0.00120629 4.70218 0 5.55869L0 11.6658C0.00120629 12.5224 0.327594 13.3434 0.907617 13.9491C1.48764 14.5547 2.27397 14.8955 3.09425 14.8968H14.9058C15.726 14.8955 16.5124 14.5547 17.0924 13.9491C17.6724 13.3434 17.9988 12.5224 18 11.6658V5.55869C17.9988 4.70218 17.6724 3.8811 17.0924 3.27545C16.5124 2.6698 15.726 2.329 14.9058 2.32774Z" fill="#FFFFFF"/>
</svg>
